<mxfile host="Electron" agent="Mozilla/5.0 (Macintosh; Intel Mac OS X 10_15_7) AppleWebKit/537.36 (KHTML, like Gecko) draw.io/26.0.9 Chrome/128.0.6613.186 Electron/32.2.5 Safari/537.36" version="26.0.9" pages="5">
  <diagram id="riqUSrlaP6jXExCuSTgc" name="Contexto">
    <mxGraphModel dx="1249" dy="774" grid="1" gridSize="10" guides="1" tooltips="1" connect="1" arrows="1" fold="1" page="1" pageScale="1" pageWidth="827" pageHeight="1169" math="0" shadow="0">
      <root>
        <mxCell id="0" />
        <mxCell id="1" parent="0" />
        <mxCell id="EAEycP8fEGN3a_cI4NC4-1" value="Cliente" style="rounded=1;whiteSpace=wrap;html=1;" vertex="1" parent="1">
          <mxGeometry x="80" y="440" width="120" height="70" as="geometry" />
        </mxCell>
        <mxCell id="EAEycP8fEGN3a_cI4NC4-2" value="SPA" style="rounded=1;whiteSpace=wrap;html=1;" vertex="1" parent="1">
          <mxGeometry x="290" y="400" width="120" height="60" as="geometry" />
        </mxCell>
        <mxCell id="EAEycP8fEGN3a_cI4NC4-3" value="App Móvil" style="rounded=1;whiteSpace=wrap;html=1;" vertex="1" parent="1">
          <mxGeometry x="290" y="505" width="120" height="60" as="geometry" />
        </mxCell>
        <mxCell id="EAEycP8fEGN3a_cI4NC4-4" value="API Gateway" style="rounded=1;whiteSpace=wrap;html=1;" vertex="1" parent="1">
          <mxGeometry x="459" y="445" width="120" height="60" as="geometry" />
        </mxCell>
        <mxCell id="EAEycP8fEGN3a_cI4NC4-5" value="Servicios" style="rounded=1;whiteSpace=wrap;html=1;" vertex="1" parent="1">
          <mxGeometry x="629" y="445" width="120" height="60" as="geometry" />
        </mxCell>
        <mxCell id="EAEycP8fEGN3a_cI4NC4-6" value="Core Bancario" style="rounded=1;whiteSpace=wrap;html=1;" vertex="1" parent="1">
          <mxGeometry x="799" y="382.5" width="120" height="60" as="geometry" />
        </mxCell>
        <mxCell id="EAEycP8fEGN3a_cI4NC4-7" value="Info. Detalle" style="rounded=1;whiteSpace=wrap;html=1;" vertex="1" parent="1">
          <mxGeometry x="969" y="382.5" width="120" height="60" as="geometry" />
        </mxCell>
        <mxCell id="EAEycP8fEGN3a_cI4NC4-9" value="Notificaciones" style="rounded=1;whiteSpace=wrap;html=1;" vertex="1" parent="1">
          <mxGeometry x="799" y="507.5" width="120" height="60" as="geometry" />
        </mxCell>
        <mxCell id="EAEycP8fEGN3a_cI4NC4-10" value="Auditoría" style="rounded=1;whiteSpace=wrap;html=1;" vertex="1" parent="1">
          <mxGeometry x="969" y="507.5" width="120" height="60" as="geometry" />
        </mxCell>
        <mxCell id="EAEycP8fEGN3a_cI4NC4-11" value="" style="edgeStyle=orthogonalEdgeStyle;rounded=0;orthogonalLoop=1;jettySize=auto;html=1;startArrow=classic;startFill=1;entryX=0;entryY=0.5;entryDx=0;entryDy=0;exitX=1;exitY=0.5;exitDx=0;exitDy=0;" edge="1" parent="1" source="EAEycP8fEGN3a_cI4NC4-1" target="EAEycP8fEGN3a_cI4NC4-2">
          <mxGeometry relative="1" as="geometry">
            <mxPoint x="140" y="440" as="sourcePoint" />
          </mxGeometry>
        </mxCell>
        <mxCell id="EAEycP8fEGN3a_cI4NC4-12" value="" style="edgeStyle=orthogonalEdgeStyle;rounded=0;orthogonalLoop=1;jettySize=auto;html=1;startArrow=classic;startFill=1;" edge="1" parent="1" source="EAEycP8fEGN3a_cI4NC4-1" target="EAEycP8fEGN3a_cI4NC4-3">
          <mxGeometry relative="1" as="geometry" />
        </mxCell>
        <mxCell id="EAEycP8fEGN3a_cI4NC4-21" value="Contexto" style="text;whiteSpace=wrap;fontSize=20;" vertex="1" parent="1">
          <mxGeometry x="476.5" y="10" width="85" height="40" as="geometry" />
        </mxCell>
        <mxCell id="EAEycP8fEGN3a_cI4NC4-8" value="OAuth 2.0" style="rounded=1;whiteSpace=wrap;html=1;" vertex="1" parent="1">
          <mxGeometry x="459" y="320" width="119" height="60" as="geometry" />
        </mxCell>
        <mxCell id="CSLGm0J51w-Gdmf92b4x-56" value="" style="endArrow=classic;startArrow=classic;html=1;rounded=0;exitX=1;exitY=0.5;exitDx=0;exitDy=0;entryX=0;entryY=0.5;entryDx=0;entryDy=0;" edge="1" parent="1" source="EAEycP8fEGN3a_cI4NC4-2" target="EAEycP8fEGN3a_cI4NC4-4">
          <mxGeometry width="50" height="50" relative="1" as="geometry">
            <mxPoint x="445" y="455" as="sourcePoint" />
            <mxPoint x="495" y="405" as="targetPoint" />
            <Array as="points" />
          </mxGeometry>
        </mxCell>
        <mxCell id="CSLGm0J51w-Gdmf92b4x-58" value="" style="endArrow=classic;startArrow=classic;html=1;rounded=0;exitX=1;exitY=0.5;exitDx=0;exitDy=0;entryX=0;entryY=0.5;entryDx=0;entryDy=0;" edge="1" parent="1" source="EAEycP8fEGN3a_cI4NC4-3" target="EAEycP8fEGN3a_cI4NC4-4">
          <mxGeometry width="50" height="50" relative="1" as="geometry">
            <mxPoint x="420" y="500" as="sourcePoint" />
            <mxPoint x="560" y="545" as="targetPoint" />
            <Array as="points" />
          </mxGeometry>
        </mxCell>
        <mxCell id="CSLGm0J51w-Gdmf92b4x-60" value="" style="endArrow=classic;startArrow=classic;html=1;rounded=0;exitX=0.5;exitY=1;exitDx=0;exitDy=0;entryX=0.5;entryY=0;entryDx=0;entryDy=0;" edge="1" parent="1" source="EAEycP8fEGN3a_cI4NC4-8" target="EAEycP8fEGN3a_cI4NC4-4">
          <mxGeometry width="50" height="50" relative="1" as="geometry">
            <mxPoint x="559" y="407.5" as="sourcePoint" />
            <mxPoint x="699" y="452.5" as="targetPoint" />
            <Array as="points" />
          </mxGeometry>
        </mxCell>
        <mxCell id="CSLGm0J51w-Gdmf92b4x-61" value="" style="endArrow=classic;startArrow=classic;html=1;rounded=0;exitX=1;exitY=0.5;exitDx=0;exitDy=0;entryX=0;entryY=0.5;entryDx=0;entryDy=0;" edge="1" parent="1" source="EAEycP8fEGN3a_cI4NC4-4" target="EAEycP8fEGN3a_cI4NC4-5">
          <mxGeometry width="50" height="50" relative="1" as="geometry">
            <mxPoint x="690" y="502.5" as="sourcePoint" />
            <mxPoint x="690" y="567.5" as="targetPoint" />
            <Array as="points" />
          </mxGeometry>
        </mxCell>
        <mxCell id="CSLGm0J51w-Gdmf92b4x-62" value="" style="endArrow=classic;startArrow=classic;html=1;rounded=0;exitX=1;exitY=0.5;exitDx=0;exitDy=0;entryX=0;entryY=0.5;entryDx=0;entryDy=0;" edge="1" parent="1" source="EAEycP8fEGN3a_cI4NC4-5" target="EAEycP8fEGN3a_cI4NC4-6">
          <mxGeometry width="50" height="50" relative="1" as="geometry">
            <mxPoint x="698" y="563.5699999999999" as="sourcePoint" />
            <mxPoint x="778" y="563.5699999999999" as="targetPoint" />
            <Array as="points" />
          </mxGeometry>
        </mxCell>
        <mxCell id="CSLGm0J51w-Gdmf92b4x-63" value="" style="endArrow=classic;startArrow=classic;html=1;rounded=0;exitX=1;exitY=0.5;exitDx=0;exitDy=0;entryX=0;entryY=0.5;entryDx=0;entryDy=0;" edge="1" parent="1" source="EAEycP8fEGN3a_cI4NC4-5" target="EAEycP8fEGN3a_cI4NC4-9">
          <mxGeometry width="50" height="50" relative="1" as="geometry">
            <mxPoint x="708" y="573.5699999999999" as="sourcePoint" />
            <mxPoint x="788" y="573.5699999999999" as="targetPoint" />
            <Array as="points" />
          </mxGeometry>
        </mxCell>
        <mxCell id="CSLGm0J51w-Gdmf92b4x-64" value="" style="endArrow=classic;startArrow=classic;html=1;rounded=0;exitX=1;exitY=0.5;exitDx=0;exitDy=0;entryX=0;entryY=0.5;entryDx=0;entryDy=0;" edge="1" parent="1" source="EAEycP8fEGN3a_cI4NC4-6" target="EAEycP8fEGN3a_cI4NC4-7">
          <mxGeometry width="50" height="50" relative="1" as="geometry">
            <mxPoint x="989" y="532.5" as="sourcePoint" />
            <mxPoint x="1069" y="532.5" as="targetPoint" />
            <Array as="points" />
          </mxGeometry>
        </mxCell>
        <mxCell id="CSLGm0J51w-Gdmf92b4x-65" value="" style="endArrow=classic;startArrow=classic;html=1;rounded=0;entryX=0;entryY=0.5;entryDx=0;entryDy=0;exitX=1;exitY=0.5;exitDx=0;exitDy=0;" edge="1" parent="1" source="EAEycP8fEGN3a_cI4NC4-9" target="EAEycP8fEGN3a_cI4NC4-10">
          <mxGeometry width="50" height="50" relative="1" as="geometry">
            <mxPoint x="869" y="562.5" as="sourcePoint" />
            <mxPoint x="779" y="656.0699999999999" as="targetPoint" />
            <Array as="points" />
          </mxGeometry>
        </mxCell>
      </root>
    </mxGraphModel>
  </diagram>
  <diagram id="erhx5m6c53eMrH1L7UW3" name="Contenedores">
    <mxGraphModel dx="1855" dy="638" grid="1" gridSize="10" guides="1" tooltips="1" connect="1" arrows="1" fold="1" page="1" pageScale="1" pageWidth="827" pageHeight="1169" math="0" shadow="0">
      <root>
        <mxCell id="0" />
        <mxCell id="1" parent="0" />
        <mxCell id="j74LjVg42WcZYQ8dDfLo-2" value="&lt;div&gt;&lt;/div&gt;" style="rounded=1;whiteSpace=wrap;html=1;" vertex="1" parent="1">
          <mxGeometry x="-585" y="270" width="350" height="370" as="geometry" />
        </mxCell>
        <mxCell id="j74LjVg42WcZYQ8dDfLo-3" value="SPA" style="rounded=1;whiteSpace=wrap;html=1;" vertex="1" parent="1">
          <mxGeometry x="-559" y="310" width="120" height="60" as="geometry" />
        </mxCell>
        <mxCell id="j74LjVg42WcZYQ8dDfLo-4" value="Aplicación Móvil" style="rounded=1;whiteSpace=wrap;html=1;" vertex="1" parent="1">
          <mxGeometry x="-385" y="310" width="120" height="60" as="geometry" />
        </mxCell>
        <mxCell id="j74LjVg42WcZYQ8dDfLo-5" value="API Gateway" style="rounded=1;whiteSpace=wrap;html=1;" vertex="1" parent="1">
          <mxGeometry x="-559" y="390" width="120" height="60" as="geometry" />
        </mxCell>
        <mxCell id="j74LjVg42WcZYQ8dDfLo-6" value="Servicios" style="rounded=1;whiteSpace=wrap;html=1;" vertex="1" parent="1">
          <mxGeometry x="-385" y="390" width="120" height="60" as="geometry" />
        </mxCell>
        <mxCell id="j74LjVg42WcZYQ8dDfLo-7" value="OAuth 2.0" style="rounded=1;whiteSpace=wrap;html=1;" vertex="1" parent="1">
          <mxGeometry x="-559" y="470" width="120" height="60" as="geometry" />
        </mxCell>
        <mxCell id="j74LjVg42WcZYQ8dDfLo-8" value="Notificaciones" style="rounded=1;whiteSpace=wrap;html=1;" vertex="1" parent="1">
          <mxGeometry x="-385" y="470" width="120" height="60" as="geometry" />
        </mxCell>
        <mxCell id="j74LjVg42WcZYQ8dDfLo-9" value="Base de datos de auditoría" style="rounded=1;whiteSpace=wrap;html=1;" vertex="1" parent="1">
          <mxGeometry x="-559" y="560" width="120" height="60" as="geometry" />
        </mxCell>
        <mxCell id="j74LjVg42WcZYQ8dDfLo-10" value="Mecanismo de persistencia" style="rounded=1;whiteSpace=wrap;html=1;" vertex="1" parent="1">
          <mxGeometry x="-385" y="560" width="120" height="60" as="geometry" />
        </mxCell>
        <mxCell id="j74LjVg42WcZYQ8dDfLo-11" value="Contenedores Sistema de Banca por Internet" style="text;whiteSpace=wrap;html=1;" vertex="1" parent="1">
          <mxGeometry x="-530" y="280" width="250" height="30" as="geometry" />
        </mxCell>
        <mxCell id="j74LjVg42WcZYQ8dDfLo-12" value="&lt;font style=&quot;font-size: 18px;&quot;&gt;Contenedores&lt;/font&gt;" style="text;whiteSpace=wrap;html=1;" vertex="1" parent="1">
          <mxGeometry x="-470" y="10" width="120" height="40" as="geometry" />
        </mxCell>
        <mxCell id="Lx7Qqb6t0wUUPg9YVjb_-1" value="&lt;h3 style=&quot;margin-left:36.0pt;text-indent:0cm;mso-list:none&quot;&gt;&lt;a name=&quot;_Toc190682269&quot;&gt;&lt;b&gt;&lt;u&gt;&lt;span lang=&quot;ES&quot; style=&quot;font-size: 14pt; font-family: &amp;quot;Times New Roman&amp;quot;, serif; color: black;&quot;&gt;Interacciones entre Contenedores&lt;/span&gt;&lt;/u&gt;&lt;/b&gt;&lt;/a&gt;&lt;b&gt;&lt;u&gt;&lt;span lang=&quot;ES&quot; style=&quot;font-size:14.0pt;&lt;br/&gt;line-height:115%;font-family:&amp;quot;Times New Roman&amp;quot;,serif;mso-bidi-font-family:Arial;&lt;br/&gt;color:black&quot;&gt;&lt;/span&gt;&lt;/u&gt;&lt;/b&gt;&lt;/h3&gt;&lt;p class=&quot;MsoNormal&quot; style=&quot;mso-margin-top-alt:auto;mso-margin-bottom-alt:auto;&lt;br/&gt;margin-left:43.2pt;text-indent:-21.6pt;line-height:normal;mso-list:l1 level1 lfo1&quot;&gt;&lt;span lang=&quot;ES&quot; style=&quot;mso-fareast-font-family:Calibri;mso-fareast-theme-font:minor-latin;&lt;br/&gt;mso-bidi-font-family:Calibri;mso-bidi-theme-font:minor-latin&quot;&gt;&lt;span style=&quot;mso-list:Ignore&quot;&gt;1&lt;span style=&quot;font:7.0pt &amp;quot;Times New Roman&amp;quot;&quot;&gt;&amp;nbsp; &amp;nbsp; &lt;/span&gt;&lt;/span&gt;&lt;/span&gt;&lt;span lang=&quot;ES&quot;&gt;La SPA y la aplicación móvil se comunican con la API Gateway para acceder a los servicios del sistema.&lt;/span&gt;&lt;/p&gt;&lt;p class=&quot;MsoNormal&quot; style=&quot;mso-margin-top-alt:auto;mso-margin-bottom-alt:auto;&lt;br/&gt;margin-left:43.2pt;text-indent:-21.6pt;line-height:normal;mso-list:l1 level1 lfo1&quot;&gt;&lt;span lang=&quot;ES&quot; style=&quot;mso-fareast-font-family:Calibri;mso-fareast-theme-font:minor-latin;&lt;br/&gt;mso-bidi-font-family:Calibri;mso-bidi-theme-font:minor-latin&quot;&gt;&lt;span style=&quot;mso-list:Ignore&quot;&gt;2&lt;span style=&quot;font:7.0pt &amp;quot;Times New Roman&amp;quot;&quot;&gt;&amp;nbsp; &amp;nbsp;&amp;nbsp;&lt;/span&gt;&lt;/span&gt;&lt;/span&gt;&lt;span lang=&quot;ES&quot;&gt;La API Gateway gestiona las solicitudes y las enruta a los servicios correspondientes.&lt;/span&gt;&lt;/p&gt;&lt;p class=&quot;MsoNormal&quot; style=&quot;mso-margin-top-alt:auto;mso-margin-bottom-alt:auto;&lt;br/&gt;margin-left:43.2pt;text-indent:-21.6pt;line-height:normal;mso-list:l1 level1 lfo1&quot;&gt;&lt;span lang=&quot;ES&quot; style=&quot;mso-fareast-font-family:Calibri;mso-fareast-theme-font:minor-latin;&lt;br/&gt;mso-bidi-font-family:Calibri;mso-bidi-theme-font:minor-latin&quot;&gt;3&lt;font size=&quot;1&quot; face=&quot;Times New Roman&quot;&gt;&amp;nbsp; &amp;nbsp;&lt;/font&gt;&lt;/span&gt;&lt;span lang=&quot;ES&quot;&gt;Los servicios se comunican entre sí y con la base de datos transaccional, la base de datos de auditoría, el&amp;nbsp;caché y el bus de mensajes para realizar sus tareas.&lt;/span&gt;&lt;/p&gt;&lt;p class=&quot;MsoNormal&quot; style=&quot;mso-margin-top-alt:auto;mso-margin-bottom-alt:auto;&lt;br/&gt;margin-left:43.2pt;text-indent:-21.6pt;line-height:normal;mso-list:l1 level1 lfo1&quot;&gt;&lt;span lang=&quot;ES&quot; style=&quot;mso-fareast-font-family:Calibri;mso-fareast-theme-font:minor-latin;&lt;br/&gt;mso-bidi-font-family:Calibri;mso-bidi-theme-font:minor-latin&quot;&gt;&lt;span style=&quot;mso-list:Ignore&quot;&gt;4&amp;nbsp;&amp;nbsp;&lt;/span&gt;&lt;/span&gt;&lt;span lang=&quot;ES&quot;&gt;El sistema OAuth 2.0 se encarga de&amp;nbsp;la autenticación y autorización de los usuarios.&lt;/span&gt;&lt;/p&gt;&lt;p class=&quot;MsoNormal&quot; style=&quot;mso-margin-top-alt:auto;mso-margin-bottom-alt:auto;&lt;br/&gt;margin-left:43.2pt;text-indent:-21.6pt;line-height:normal;mso-list:l1 level1 lfo1&quot;&gt;&lt;span lang=&quot;ES&quot; style=&quot;mso-fareast-font-family:Calibri;mso-fareast-theme-font:minor-latin;&lt;br/&gt;mso-bidi-font-family:Calibri;mso-bidi-theme-font:minor-latin&quot;&gt;&lt;span style=&quot;mso-list:Ignore&quot;&gt;5&lt;span style=&quot;font:7.0pt &amp;quot;Times New Roman&amp;quot;&quot;&gt;&amp;nbsp;&amp;nbsp;&amp;nbsp;&lt;/span&gt;&lt;/span&gt;&lt;/span&gt;&lt;span lang=&quot;ES&quot;&gt;El sistema de notificaciones envía notificaciones a los clientes a través de push o SMS.&lt;/span&gt;&lt;/p&gt;" style="text;whiteSpace=wrap;html=1;" vertex="1" parent="1">
          <mxGeometry x="-766" y="50" width="705" height="210" as="geometry" />
        </mxCell>
      </root>
    </mxGraphModel>
  </diagram>
  <diagram name="Componentes" id="-NAxKDM5OEHFWmDFkVgP">
    <mxGraphModel dx="874" dy="542" grid="1" gridSize="10" guides="1" tooltips="1" connect="1" arrows="1" fold="1" page="1" pageScale="1" pageWidth="827" pageHeight="1169" math="0" shadow="0">
      <root>
        <mxCell id="0" />
        <mxCell id="1" parent="0" />
        <mxCell id="rzPEFaR-sFvqrRvYykkS-1" value="" style="rounded=1;whiteSpace=wrap;html=1;" vertex="1" parent="1">
          <mxGeometry x="100" y="350" width="250" height="330" as="geometry" />
        </mxCell>
        <mxCell id="rzPEFaR-sFvqrRvYykkS-2" value="Autenticación" style="rounded=1;whiteSpace=wrap;html=1;" vertex="1" parent="1">
          <mxGeometry x="125" y="410" width="200" height="40" as="geometry" />
        </mxCell>
        <mxCell id="rzPEFaR-sFvqrRvYykkS-3" value="Cuentas" style="rounded=1;whiteSpace=wrap;html=1;" vertex="1" parent="1">
          <mxGeometry x="125" y="460" width="200" height="40" as="geometry" />
        </mxCell>
        <mxCell id="rzPEFaR-sFvqrRvYykkS-4" value="Transferencias" style="rounded=1;whiteSpace=wrap;html=1;" vertex="1" parent="1">
          <mxGeometry x="125" y="510" width="200" height="40" as="geometry" />
        </mxCell>
        <mxCell id="rzPEFaR-sFvqrRvYykkS-5" value="Pagos" style="rounded=1;whiteSpace=wrap;html=1;" vertex="1" parent="1">
          <mxGeometry x="125" y="560" width="200" height="40" as="geometry" />
        </mxCell>
        <mxCell id="rzPEFaR-sFvqrRvYykkS-6" value="Seguridad" style="rounded=1;whiteSpace=wrap;html=1;" vertex="1" parent="1">
          <mxGeometry x="125" y="610" width="200" height="40" as="geometry" />
        </mxCell>
        <mxCell id="rzPEFaR-sFvqrRvYykkS-14" value="" style="rounded=1;whiteSpace=wrap;html=1;" vertex="1" parent="1">
          <mxGeometry x="119" y="730" width="240" height="330" as="geometry" />
        </mxCell>
        <mxCell id="rzPEFaR-sFvqrRvYykkS-15" value="Reverse Proxy" style="rounded=1;whiteSpace=wrap;html=1;" vertex="1" parent="1">
          <mxGeometry x="139" y="790" width="200" height="40" as="geometry" />
        </mxCell>
        <mxCell id="rzPEFaR-sFvqrRvYykkS-16" value="Autenticación y Autorización" style="rounded=1;whiteSpace=wrap;html=1;" vertex="1" parent="1">
          <mxGeometry x="139" y="840" width="200" height="40" as="geometry" />
        </mxCell>
        <mxCell id="rzPEFaR-sFvqrRvYykkS-17" value="Rate Limiting" style="rounded=1;whiteSpace=wrap;html=1;" vertex="1" parent="1">
          <mxGeometry x="139" y="890" width="200" height="40" as="geometry" />
        </mxCell>
        <mxCell id="rzPEFaR-sFvqrRvYykkS-18" value="Transformación" style="rounded=1;whiteSpace=wrap;html=1;" vertex="1" parent="1">
          <mxGeometry x="139" y="940" width="200" height="40" as="geometry" />
        </mxCell>
        <mxCell id="rzPEFaR-sFvqrRvYykkS-19" value="Logging y Monitoreo" style="rounded=1;whiteSpace=wrap;html=1;" vertex="1" parent="1">
          <mxGeometry x="139" y="990" width="200" height="40" as="geometry" />
        </mxCell>
        <mxCell id="rzPEFaR-sFvqrRvYykkS-20" value="" style="rounded=1;whiteSpace=wrap;html=1;" vertex="1" parent="1">
          <mxGeometry x="449" y="755" width="240" height="280" as="geometry" />
        </mxCell>
        <mxCell id="rzPEFaR-sFvqrRvYykkS-21" value="Controlador" style="rounded=1;whiteSpace=wrap;html=1;" vertex="1" parent="1">
          <mxGeometry x="468" y="815" width="200" height="40" as="geometry" />
        </mxCell>
        <mxCell id="rzPEFaR-sFvqrRvYykkS-22" value="Lógica de Negocio" style="rounded=1;whiteSpace=wrap;html=1;" vertex="1" parent="1">
          <mxGeometry x="469" y="865" width="200" height="40" as="geometry" />
        </mxCell>
        <mxCell id="rzPEFaR-sFvqrRvYykkS-23" value="Acceso a Datos" style="rounded=1;whiteSpace=wrap;html=1;" vertex="1" parent="1">
          <mxGeometry x="469" y="915" width="200" height="40" as="geometry" />
        </mxCell>
        <mxCell id="rzPEFaR-sFvqrRvYykkS-24" value="Componentes" style="text;whiteSpace=wrap;fontSize=18;" vertex="1" parent="1">
          <mxGeometry x="349" y="10" width="120" height="30" as="geometry" />
        </mxCell>
        <mxCell id="NmdSw-ATOCwQyjOnLDDi-1" value="SPA" style="text;whiteSpace=wrap;fontSize=18;" vertex="1" parent="1">
          <mxGeometry x="210" y="360" width="45" height="30" as="geometry" />
        </mxCell>
        <mxCell id="NmdSw-ATOCwQyjOnLDDi-2" value="" style="rounded=1;whiteSpace=wrap;html=1;" vertex="1" parent="1">
          <mxGeometry x="470" y="300" width="250" height="380" as="geometry" />
        </mxCell>
        <mxCell id="NmdSw-ATOCwQyjOnLDDi-3" value="Autenticación" style="rounded=1;whiteSpace=wrap;html=1;" vertex="1" parent="1">
          <mxGeometry x="495" y="360" width="200" height="40" as="geometry" />
        </mxCell>
        <mxCell id="NmdSw-ATOCwQyjOnLDDi-4" value="Cuentas" style="rounded=1;whiteSpace=wrap;html=1;" vertex="1" parent="1">
          <mxGeometry x="495" y="410" width="200" height="40" as="geometry" />
        </mxCell>
        <mxCell id="NmdSw-ATOCwQyjOnLDDi-5" value="Transferencias" style="rounded=1;whiteSpace=wrap;html=1;" vertex="1" parent="1">
          <mxGeometry x="495" y="460" width="200" height="40" as="geometry" />
        </mxCell>
        <mxCell id="NmdSw-ATOCwQyjOnLDDi-6" value="Pagos" style="rounded=1;whiteSpace=wrap;html=1;" vertex="1" parent="1">
          <mxGeometry x="495" y="510" width="200" height="40" as="geometry" />
        </mxCell>
        <mxCell id="NmdSw-ATOCwQyjOnLDDi-7" value="Seguridad" style="rounded=1;whiteSpace=wrap;html=1;" vertex="1" parent="1">
          <mxGeometry x="495" y="610" width="200" height="40" as="geometry" />
        </mxCell>
        <mxCell id="NmdSw-ATOCwQyjOnLDDi-8" value="Aplicación Móvil" style="text;whiteSpace=wrap;fontSize=18;" vertex="1" parent="1">
          <mxGeometry x="530" y="310" width="140" height="30" as="geometry" />
        </mxCell>
        <mxCell id="rzPEFaR-sFvqrRvYykkS-12" value="Onboarding" style="rounded=1;whiteSpace=wrap;html=1;" vertex="1" parent="1">
          <mxGeometry x="495" y="560" width="200" height="40" as="geometry" />
        </mxCell>
        <mxCell id="NmdSw-ATOCwQyjOnLDDi-10" value="API Gateway" style="text;whiteSpace=wrap;fontSize=18;" vertex="1" parent="1">
          <mxGeometry x="184" y="740" width="110" height="30" as="geometry" />
        </mxCell>
        <mxCell id="NmdSw-ATOCwQyjOnLDDi-11" value="Servicios" style="text;whiteSpace=wrap;fontSize=18;" vertex="1" parent="1">
          <mxGeometry x="532" y="765" width="74" height="30" as="geometry" />
        </mxCell>
        <mxCell id="NmdSw-ATOCwQyjOnLDDi-13" value="Integración" style="rounded=1;whiteSpace=wrap;html=1;" vertex="1" parent="1">
          <mxGeometry x="468" y="965" width="200" height="40" as="geometry" />
        </mxCell>
        <mxCell id="NmdSw-ATOCwQyjOnLDDi-14" value="" style="endArrow=classic;startArrow=classic;html=1;rounded=0;entryX=0.5;entryY=0;entryDx=0;entryDy=0;exitX=0.5;exitY=1;exitDx=0;exitDy=0;" edge="1" parent="1" source="rzPEFaR-sFvqrRvYykkS-1" target="rzPEFaR-sFvqrRvYykkS-14">
          <mxGeometry width="50" height="50" relative="1" as="geometry">
            <mxPoint x="670" y="780" as="sourcePoint" />
            <mxPoint x="720" y="730" as="targetPoint" />
          </mxGeometry>
        </mxCell>
        <mxCell id="NmdSw-ATOCwQyjOnLDDi-15" value="" style="endArrow=classic;startArrow=classic;html=1;rounded=0;entryX=0.5;entryY=0;entryDx=0;entryDy=0;exitX=0.5;exitY=1;exitDx=0;exitDy=0;" edge="1" parent="1" source="NmdSw-ATOCwQyjOnLDDi-2" target="rzPEFaR-sFvqrRvYykkS-14">
          <mxGeometry width="50" height="50" relative="1" as="geometry">
            <mxPoint x="235" y="690" as="sourcePoint" />
            <mxPoint x="440" y="780" as="targetPoint" />
          </mxGeometry>
        </mxCell>
        <mxCell id="NmdSw-ATOCwQyjOnLDDi-16" value="" style="endArrow=classic;startArrow=classic;html=1;rounded=0;entryX=0;entryY=0.5;entryDx=0;entryDy=0;exitX=1;exitY=0.5;exitDx=0;exitDy=0;" edge="1" parent="1" source="rzPEFaR-sFvqrRvYykkS-14" target="rzPEFaR-sFvqrRvYykkS-20">
          <mxGeometry width="50" height="50" relative="1" as="geometry">
            <mxPoint x="414" y="650" as="sourcePoint" />
            <mxPoint x="249" y="740" as="targetPoint" />
            <Array as="points">
              <mxPoint x="409" y="895" />
            </Array>
          </mxGeometry>
        </mxCell>
        <mxCell id="N4gbHADzf-ytWd16hCDP-1" value="&lt;h3 style=&quot;text-indent:0cm;mso-list:none&quot;&gt;&lt;a name=&quot;_Toc190682272&quot;&gt;&lt;b&gt;&lt;u&gt;&lt;span lang=&quot;ES&quot; style=&quot;font-size: 14pt; line-height: 115%; font-family: &amp;quot;Times New Roman&amp;quot;, serif; color: black;&quot;&gt;Interacciones entre Componentes&lt;/span&gt;&lt;/u&gt;&lt;/b&gt;&lt;/a&gt;&lt;b&gt;&lt;u&gt;&lt;span lang=&quot;ES&quot; style=&quot;font-size: 14pt; line-height: 115%; font-family: &amp;quot;Times New Roman&amp;quot;, serif; color: black;&quot;&gt;&lt;/span&gt;&lt;/u&gt;&lt;/b&gt;&lt;/h3&gt;&lt;ul type=&quot;disc&quot; data-sourcepos=&quot;118:1-123:0&quot;&gt;&lt;li class=&quot;MsoNormal&quot; style=&quot;mso-margin-top-alt:auto;mso-margin-bottom-alt:auto;&lt;br/&gt;     line-height:normal;mso-list:l1 level1 lfo2;tab-stops:list 36.0pt&quot; data-sourcepos=&quot;118:1-118:123&quot;&gt;&lt;span lang=&quot;ES&quot;&gt;Los componentes de la SPA y la aplicación móvil se comunican con la API Gateway para acceder a los&amp;nbsp;servicios del sistema.&lt;/span&gt;&lt;/li&gt;&lt;br&gt; &lt;li class=&quot;MsoNormal&quot; style=&quot;mso-margin-top-alt:auto;mso-margin-bottom-alt:auto;&lt;br/&gt;     line-height:normal;mso-list:l1 level1 lfo2;tab-stops:list 36.0pt&quot; data-sourcepos=&quot;119:1-119:97&quot;&gt;&lt;span lang=&quot;ES&quot;&gt;Los componentes de la API&amp;nbsp;Gateway interactúan con los servicios para gestionar las solicitudes.&lt;/span&gt;&lt;/li&gt;&lt;br&gt; &lt;li class=&quot;MsoNormal&quot; style=&quot;mso-margin-top-alt:auto;mso-margin-bottom-alt:auto;&lt;br/&gt;     line-height:normal;mso-list:l1 level1 lfo2;tab-stops:list 36.0pt&quot; data-sourcepos=&quot;120:1-120:181&quot;&gt;&lt;span lang=&quot;ES&quot;&gt;Los componentes de los&amp;nbsp;servicios se comunican entre sí y con la base de datos transaccional, la&amp;nbsp;base de datos de auditoría, el caché y el bus de mensajes para realizar&amp;nbsp;sus tareas.&lt;/span&gt;&lt;/li&gt;&lt;br&gt; &lt;li class=&quot;MsoNormal&quot; style=&quot;mso-margin-top-alt:auto;mso-margin-bottom-alt:auto;&lt;br/&gt;     line-height:normal;mso-list:l1 level1 lfo2;tab-stops:list 36.0pt&quot; data-sourcepos=&quot;121:1-121:85&quot;&gt;&lt;span lang=&quot;ES&quot;&gt;El sistema OAuth 2.0 se&amp;nbsp;encarga de la autenticación y autorización de los usuarios.&lt;/span&gt;&lt;/li&gt;&lt;br&gt; &lt;li class=&quot;MsoNormal&quot; style=&quot;mso-margin-top-alt:auto;mso-margin-bottom-alt:auto;&lt;br/&gt;     line-height:normal;mso-list:l1 level1 lfo2;tab-stops:list 36.0pt&quot; data-sourcepos=&quot;122:1-123:0&quot;&gt;&lt;span lang=&quot;ES&quot;&gt;El sistema de notificaciones&amp;nbsp;envía notificaciones a los clientes a través de push o SMS.&lt;/span&gt;&lt;/li&gt;&lt;br&gt;&lt;/ul&gt;" style="text;whiteSpace=wrap;html=1;" vertex="1" parent="1">
          <mxGeometry x="20" y="60" width="780" height="220" as="geometry" />
        </mxCell>
      </root>
    </mxGraphModel>
  </diagram>
  <diagram id="UC4B4ytQh15cdE4-HuwB" name="Flujo_Datos">
    <mxGraphModel dx="1855" dy="638" grid="1" gridSize="10" guides="1" tooltips="1" connect="1" arrows="1" fold="1" page="1" pageScale="1" pageWidth="827" pageHeight="1169" math="0" shadow="0">
      <root>
        <mxCell id="0" />
        <mxCell id="1" parent="0" />
        <mxCell id="cUsWcJrooMYZb2FGO95W-4" value="Cliente (SPA / App Móvil)" style="rounded=1;whiteSpace=wrap;html=1;" vertex="1" parent="1">
          <mxGeometry x="-810" y="430" width="160" height="60" as="geometry" />
        </mxCell>
        <mxCell id="cUsWcJrooMYZb2FGO95W-5" value="API Gateway" style="rounded=1;whiteSpace=wrap;html=1;" vertex="1" parent="1">
          <mxGeometry x="-620" y="430" width="120" height="60" as="geometry" />
        </mxCell>
        <mxCell id="cUsWcJrooMYZb2FGO95W-6" value="Servicio de Transferencias" style="rounded=1;whiteSpace=wrap;html=1;" vertex="1" parent="1">
          <mxGeometry x="-460" y="430" width="160" height="60" as="geometry" />
        </mxCell>
        <mxCell id="cUsWcJrooMYZb2FGO95W-7" value="Core Bancario" style="rounded=1;whiteSpace=wrap;html=1;" vertex="1" parent="1">
          <mxGeometry x="-257" y="430" width="120" height="60" as="geometry" />
        </mxCell>
        <mxCell id="cUsWcJrooMYZb2FGO95W-8" value="Info. Detalle" style="rounded=1;whiteSpace=wrap;html=1;" vertex="1" parent="1">
          <mxGeometry x="-257" y="330" width="120" height="60" as="geometry" />
        </mxCell>
        <mxCell id="cUsWcJrooMYZb2FGO95W-9" value="Base de Datos Transaccional" style="rounded=1;whiteSpace=wrap;html=1;" vertex="1" parent="1">
          <mxGeometry x="-277" y="550" width="160" height="60" as="geometry" />
        </mxCell>
        <mxCell id="cUsWcJrooMYZb2FGO95W-10" value="Base de Datos de Auditoría" style="rounded=1;whiteSpace=wrap;html=1;" vertex="1" parent="1">
          <mxGeometry x="-87" y="430" width="160" height="60" as="geometry" />
        </mxCell>
        <mxCell id="cUsWcJrooMYZb2FGO95W-11" value="Sistema de Notificaciones" style="rounded=1;whiteSpace=wrap;html=1;" vertex="1" parent="1">
          <mxGeometry x="-460" y="550" width="160" height="60" as="geometry" />
        </mxCell>
        <mxCell id="cUsWcJrooMYZb2FGO95W-14" value="" style="edgeStyle=orthogonalEdgeStyle;rounded=0;orthogonalLoop=1;jettySize=auto;html=1;startArrow=classic;startFill=1;entryX=0;entryY=0.5;entryDx=0;entryDy=0;" edge="1" parent="1" source="cUsWcJrooMYZb2FGO95W-6" target="cUsWcJrooMYZb2FGO95W-7">
          <mxGeometry relative="1" as="geometry" />
        </mxCell>
        <mxCell id="cUsWcJrooMYZb2FGO95W-19" value="1.&#x9;Cliente (SPA/App Móvil) inicia transferencia.&#xa;2.&#x9;Solicitud llega al API Gateway.&#xa;3.&#x9;API Gateway autentica y autoriza al cliente.&#xa;4.&#x9;API Gateway enruta la solicitud al servicio de transferencias.&#xa;5.&#x9;Servicio de transferencias consulta datos del cliente (Core Bancario, Info. Detalle).&#xa;6.&#x9;Servicio de transferencias realiza la transferencia (Core Bancario / Servicios externos).&#xa;7.&#x9;Se registra la transacción en la base de datos de auditoría.&#xa;8.&#x9;Se envían notificaciones (Push / SMS) al cliente.&#xa;9.&#x9;Se actualiza la información en la base de datos transaccional y caché." style="text;whiteSpace=wrap;html=1;" vertex="1" parent="1">
          <mxGeometry x="-790" y="140" width="510" height="150" as="geometry" />
        </mxCell>
        <mxCell id="cUsWcJrooMYZb2FGO95W-21" value="&lt;span style=&quot;color: rgb(0, 0, 0); font-family: Helvetica; font-style: normal; font-variant-ligatures: normal; font-variant-caps: normal; font-weight: 400; letter-spacing: normal; orphans: 2; text-align: left; text-indent: 0px; text-transform: none; widows: 2; word-spacing: 0px; -webkit-text-stroke-width: 0px; white-space: normal; background-color: rgb(251, 251, 251); text-decoration-thickness: initial; text-decoration-style: initial; text-decoration-color: initial; float: none; display: inline !important;&quot;&gt;&lt;font style=&quot;font-size: 20px;&quot;&gt;Flujo de Datos&lt;/font&gt;&lt;/span&gt;" style="text;whiteSpace=wrap;html=1;" vertex="1" parent="1">
          <mxGeometry x="-413" y="40" width="140" height="40" as="geometry" />
        </mxCell>
        <mxCell id="7cntbag_YO8f8jbohvwQ-4" value="" style="endArrow=classic;startArrow=classic;html=1;rounded=0;exitX=1;exitY=0.5;exitDx=0;exitDy=0;entryX=0;entryY=0.5;entryDx=0;entryDy=0;" edge="1" parent="1" source="cUsWcJrooMYZb2FGO95W-4" target="cUsWcJrooMYZb2FGO95W-5">
          <mxGeometry width="50" height="50" relative="1" as="geometry">
            <mxPoint x="-470" y="370" as="sourcePoint" />
            <mxPoint x="-420" y="320" as="targetPoint" />
          </mxGeometry>
        </mxCell>
        <mxCell id="7cntbag_YO8f8jbohvwQ-5" value="" style="endArrow=classic;startArrow=classic;html=1;rounded=0;exitX=0;exitY=0.5;exitDx=0;exitDy=0;entryX=1;entryY=0.5;entryDx=0;entryDy=0;" edge="1" parent="1" source="cUsWcJrooMYZb2FGO95W-6" target="cUsWcJrooMYZb2FGO95W-5">
          <mxGeometry width="50" height="50" relative="1" as="geometry">
            <mxPoint x="-560" y="540" as="sourcePoint" />
            <mxPoint x="-480" y="540" as="targetPoint" />
          </mxGeometry>
        </mxCell>
        <mxCell id="7cntbag_YO8f8jbohvwQ-6" value="" style="endArrow=classic;startArrow=classic;html=1;rounded=0;entryX=1;entryY=0.5;entryDx=0;entryDy=0;exitX=0;exitY=0.5;exitDx=0;exitDy=0;" edge="1" parent="1" source="cUsWcJrooMYZb2FGO95W-10" target="cUsWcJrooMYZb2FGO95W-7">
          <mxGeometry width="50" height="50" relative="1" as="geometry">
            <mxPoint x="-107" y="460" as="sourcePoint" />
            <mxPoint x="-667" y="470" as="targetPoint" />
          </mxGeometry>
        </mxCell>
        <mxCell id="7cntbag_YO8f8jbohvwQ-7" value="" style="endArrow=classic;startArrow=classic;html=1;rounded=0;exitX=0.5;exitY=0;exitDx=0;exitDy=0;entryX=0.5;entryY=1;entryDx=0;entryDy=0;" edge="1" parent="1" source="cUsWcJrooMYZb2FGO95W-11" target="cUsWcJrooMYZb2FGO95W-6">
          <mxGeometry width="50" height="50" relative="1" as="geometry">
            <mxPoint x="-617" y="580" as="sourcePoint" />
            <mxPoint x="-420" y="500" as="targetPoint" />
          </mxGeometry>
        </mxCell>
        <mxCell id="7cntbag_YO8f8jbohvwQ-8" value="" style="endArrow=classic;startArrow=classic;html=1;rounded=0;entryX=0.5;entryY=1;entryDx=0;entryDy=0;exitX=0.5;exitY=0;exitDx=0;exitDy=0;" edge="1" parent="1" source="cUsWcJrooMYZb2FGO95W-9" target="cUsWcJrooMYZb2FGO95W-7">
          <mxGeometry width="50" height="50" relative="1" as="geometry">
            <mxPoint x="-237" y="550" as="sourcePoint" />
            <mxPoint x="-450" y="500" as="targetPoint" />
          </mxGeometry>
        </mxCell>
        <mxCell id="7cntbag_YO8f8jbohvwQ-9" value="" style="edgeStyle=orthogonalEdgeStyle;rounded=0;orthogonalLoop=1;jettySize=auto;html=1;startArrow=classic;startFill=1;entryX=0.5;entryY=0;entryDx=0;entryDy=0;exitX=0.5;exitY=1;exitDx=0;exitDy=0;" edge="1" parent="1" source="cUsWcJrooMYZb2FGO95W-8" target="cUsWcJrooMYZb2FGO95W-7">
          <mxGeometry relative="1" as="geometry">
            <mxPoint x="-330" y="470" as="sourcePoint" />
            <mxPoint x="-247" y="470" as="targetPoint" />
          </mxGeometry>
        </mxCell>
      </root>
    </mxGraphModel>
  </diagram>
  <diagram id="2-dw86RCSUFEdHBgbJC6" name="HA">
    <mxGraphModel dx="4370" dy="2710" grid="1" gridSize="10" guides="1" tooltips="1" connect="1" arrows="1" fold="1" page="1" pageScale="1" pageWidth="827" pageHeight="1169" math="0" shadow="0">
      <root>
        <mxCell id="0" />
        <mxCell id="1" parent="0" />
        <mxCell id="T5mXA6JcA3j-sHWwi6ly-1" value="Cliente" style="rounded=1;whiteSpace=wrap;html=1;" parent="1" vertex="1">
          <mxGeometry x="290" y="160" width="120" height="60" as="geometry" />
        </mxCell>
        <mxCell id="T5mXA6JcA3j-sHWwi6ly-2" value="CDN (Cloudfront/Azure CDN)" style="rounded=1;whiteSpace=wrap;html=1;" parent="1" vertex="1">
          <mxGeometry x="270" y="270" width="160" height="60" as="geometry" />
        </mxCell>
        <mxCell id="T5mXA6JcA3j-sHWwi6ly-3" value="Balanceador de Carga Global" style="rounded=1;whiteSpace=wrap;html=1;" parent="1" vertex="1">
          <mxGeometry x="270" y="370" width="160" height="60" as="geometry" />
        </mxCell>
        <mxCell id="T5mXA6JcA3j-sHWwi6ly-4" value="Balanceador de Carga Regional" style="rounded=1;whiteSpace=wrap;html=1;" parent="1" vertex="1">
          <mxGeometry x="270" y="470" width="160" height="60" as="geometry" />
        </mxCell>
        <mxCell id="T5mXA6JcA3j-sHWwi6ly-5" value="API Gateway" style="rounded=1;whiteSpace=wrap;html=1;" parent="1" vertex="1">
          <mxGeometry x="290" y="570" width="120" height="60" as="geometry" />
        </mxCell>
        <mxCell id="T5mXA6JcA3j-sHWwi6ly-6" value="Servicios (Microservicios)" style="rounded=1;whiteSpace=wrap;html=1;" parent="1" vertex="1">
          <mxGeometry x="270" y="670" width="160" height="60" as="geometry" />
        </mxCell>
        <mxCell id="T5mXA6JcA3j-sHWwi6ly-7" value="Base de datos (Replicación Multi-Región)" style="rounded=1;whiteSpace=wrap;html=1;" parent="1" vertex="1">
          <mxGeometry x="250" y="770" width="200" height="60" as="geometry" />
        </mxCell>
        <mxCell id="T5mXA6JcA3j-sHWwi6ly-8" value="Caché (Redis Multi-Región)" style="rounded=1;whiteSpace=wrap;html=1;" parent="1" vertex="1">
          <mxGeometry x="510" y="670" width="180" height="60" as="geometry" />
        </mxCell>
        <mxCell id="T5mXA6JcA3j-sHWwi6ly-9" value="" style="edgeStyle=orthogonalEdgeStyle;rounded=0;orthogonalLoop=1;jettySize=auto;html=1;startArrow=classic;startFill=1;" parent="1" source="T5mXA6JcA3j-sHWwi6ly-1" target="T5mXA6JcA3j-sHWwi6ly-2" edge="1">
          <mxGeometry relative="1" as="geometry" />
        </mxCell>
        <mxCell id="T5mXA6JcA3j-sHWwi6ly-10" value="" style="edgeStyle=orthogonalEdgeStyle;rounded=0;orthogonalLoop=1;jettySize=auto;html=1;startArrow=classic;startFill=1;" parent="1" source="T5mXA6JcA3j-sHWwi6ly-2" target="T5mXA6JcA3j-sHWwi6ly-3" edge="1">
          <mxGeometry relative="1" as="geometry" />
        </mxCell>
        <mxCell id="T5mXA6JcA3j-sHWwi6ly-11" value="" style="edgeStyle=orthogonalEdgeStyle;rounded=0;orthogonalLoop=1;jettySize=auto;html=1;startArrow=classic;startFill=1;" parent="1" source="T5mXA6JcA3j-sHWwi6ly-3" target="T5mXA6JcA3j-sHWwi6ly-4" edge="1">
          <mxGeometry relative="1" as="geometry" />
        </mxCell>
        <mxCell id="T5mXA6JcA3j-sHWwi6ly-12" value="" style="edgeStyle=orthogonalEdgeStyle;rounded=0;orthogonalLoop=1;jettySize=auto;html=1;startArrow=classic;startFill=1;" parent="1" source="T5mXA6JcA3j-sHWwi6ly-4" target="T5mXA6JcA3j-sHWwi6ly-5" edge="1">
          <mxGeometry relative="1" as="geometry" />
        </mxCell>
        <mxCell id="T5mXA6JcA3j-sHWwi6ly-13" value="" style="edgeStyle=orthogonalEdgeStyle;rounded=0;orthogonalLoop=1;jettySize=auto;html=1;startArrow=classic;startFill=1;" parent="1" source="T5mXA6JcA3j-sHWwi6ly-5" target="T5mXA6JcA3j-sHWwi6ly-6" edge="1">
          <mxGeometry relative="1" as="geometry" />
        </mxCell>
        <mxCell id="T5mXA6JcA3j-sHWwi6ly-14" value="" style="edgeStyle=orthogonalEdgeStyle;rounded=0;orthogonalLoop=1;jettySize=auto;html=1;startArrow=classic;startFill=1;" parent="1" source="T5mXA6JcA3j-sHWwi6ly-6" target="T5mXA6JcA3j-sHWwi6ly-7" edge="1">
          <mxGeometry relative="1" as="geometry" />
        </mxCell>
        <mxCell id="T5mXA6JcA3j-sHWwi6ly-15" value="" style="edgeStyle=orthogonalEdgeStyle;rounded=0;orthogonalLoop=1;jettySize=auto;html=1;startArrow=classic;startFill=1;" parent="1" source="T5mXA6JcA3j-sHWwi6ly-6" target="T5mXA6JcA3j-sHWwi6ly-8" edge="1">
          <mxGeometry relative="1" as="geometry" />
        </mxCell>
      </root>
    </mxGraphModel>
  </diagram>
</mxfile>
